<?xml version="1.0" standalone="no"?>
<!DOCTYPE svg PUBLIC "-//W3C//DTD SVG 20010904//EN"
 "http://www.w3.org/TR/2001/REC-SVG-20010904/DTD/svg10.dtd"><svg version="1.0" xmlns="http://www.w3.org/2000/svg"
 width="60" height="60" viewBox="0 0 900.000000 900.000000"
 preserveAspectRatio="xMidYMid meet"><g transform="translate(0.000000,900.000000) scale(0.100000,-0.100000)"
fill="#FFB629" stroke="none"><path d="M4202 8989 c-1678 -107 -3173 -1168 -3841 -2727 -393 -917 -466
-1953 -206 -2927 384 -1437 1477 -2608 2885 -3090 512 -175 1051 -257 1581
-241 1167 35 2237 496 3058 1317 705 705 1149 1604 1281 2590 34 255 46 553
32 806 -19 354 -55 588 -137 908 -403 1563 -1633 2805 -3189 3220 -223 59
-376 89 -576 115 -307 38 -597 48 -888 29z m723 -674 c367 -44 650 -114 974
-241 865 -339 1585 -989 2013 -1819 224 -436 351 -863 410 -1380 16 -143 16
-608 0 -750 -44 -385 -119 -693 -247 -1020 -142 -363 -334 -695 -581 -1005
-138 -173 -421 -456 -594 -594 -837 -667 -1894 -957 -2945 -805 -608 88 -1199
326 -1695 684 -332 239 -653 563 -897 905 -327 459 -565 1040 -652 1595 -38
243 -46 347 -45 615 0 333 27 581 94 866 173 730 536 1369 1072 1889 644 625
1473 999 2383 1074 154 13 555 5 710 -14z"/><path d="M3360 7505 c-178 -49 -329 -176 -412 -345 -70 -142 -82 -198 -82
-375 0 -184 14 -249 89 -400 85 -175 195 -290 351 -368 100 -50 183 -70 289
-70 431 0 730 454 620 943 -36 156 -118 304 -235 420 -145 144 -268 200 -455
206 -77 3 -127 -1 -165 -11z"/><path d="M5345 7500 c-91 -24 -138 -44 -203 -88 -131 -86 -222 -195 -296 -353
-120 -256 -110 -566 25 -796 52 -89 171 -204 255 -246 110 -55 175 -71 289
-71 82 1 115 6 180 28 202 69 348 201 450 411 74 151 89 215 89 400 1 178 -11
235 -81 375 -38 77 -63 110 -128 175 -48 49 -104 93 -142 113 -131 69 -299 89
-438 52z"/><path d="M2015 6274 c-147 -24 -262 -81 -360 -179 -125 -125 -180 -268 -178
-465 1 -182 46 -319 154 -476 106 -153 280 -284 454 -341 105 -34 277 -43 379
-19 154 36 320 162 389 294 72 138 100 291 78 431 -65 415 -406 737 -801 755
-47 3 -98 2 -115 0z"/><path d="M6835 6274 c-210 -30 -372 -110 -515 -253 -115 -116 -192 -253 -236
-417 -24 -92 -25 -274 -2 -361 50 -181 163 -320 330 -404 79 -40 166 -59 273
-59 216 0 408 83 576 250 155 153 238 327 264 552 8 73 -10 204 -40 293 -64
183 -227 333 -415 378 -71 17 -187 28 -235 21z"/><path d="M4389 5658 c-550 -34 -1061 -384 -1298 -889 -46 -100 -92 -228 -106
-297 -4 -18 -16 -39 -28 -47 -401 -274 -627 -599 -724 -1037 -26 -120 -26
-477 1 -598 50 -230 148 -450 277 -623 227 -305 522 -501 894 -596 203 -51
497 -54 695 -8 122 29 261 77 342 118 l56 28 77 -35 c100 -46 261 -98 372
-121 135 -28 463 -25 596 5 652 145 1129 644 1233 1290 19 122 19 371 -1 487
-73 424 -303 788 -656 1037 -96 68 -96 68 -108 125 -29 131 -121 334 -214 474
-312 466 -838 723 -1408 687z"/></g></svg>
