<?xml version="1.0" standalone="no"?>
<!DOCTYPE svg PUBLIC "-//W3C//DTD SVG 20010904//EN"
 "http://www.w3.org/TR/2001/REC-SVG-20010904/DTD/svg10.dtd">
<svg version="1.0" xmlns="http://www.w3.org/2000/svg"
 width="180.000000pt" height="230.000000pt" viewBox="0 0 1012.000000 1280.000000"
 preserveAspectRatio="xMidYMid meet">

<g transform="translate(0.000000,1280.000000) scale(0.100000,-0.100000)"
fill="#000000" stroke="none">
<path d="M3049 11376 c-169 -45 -290 -216 -407 -571 -90 -271 -191 -705 -211
-904 -14 -128 -14 -524 -1 -689 l10 -123 -101 -142 c-147 -206 -316 -464 -395
-602 -37 -66 -69 -122 -71 -124 -1 -2 -56 48 -122 112 -91 88 -155 139 -277
220 -287 189 -412 253 -479 245 l-30 -3 42 -45 c22 -25 76 -65 120 -89 266
-150 455 -284 600 -428 l102 -101 -48 -118 c-27 -66 -63 -163 -81 -216 -18
-54 -33 -98 -35 -98 -1 0 -73 43 -159 95 -182 111 -277 160 -414 214 -185 74
-303 111 -350 111 -67 0 -78 -11 -45 -42 37 -34 54 -42 189 -89 202 -70 356
-142 558 -263 151 -90 196 -122 192 -134 -20 -67 -50 -200 -65 -290 -10 -59
-23 -106 -28 -105 -6 1 -102 21 -214 45 l-204 43 -250 -1 c-294 -2 -464 -19
-519 -53 -20 -13 -36 -26 -36 -31 0 -4 21 -13 46 -20 37 -11 69 -11 168 -1 66
7 202 15 301 18 202 6 290 -3 550 -60 l150 -33 6 -210 c6 -190 9 -220 37 -325
69 -262 195 -506 431 -838 146 -205 319 -377 609 -605 61 -48 112 -91 112 -95
0 -4 -14 -20 -31 -37 -92 -87 -215 -277 -330 -509 -96 -193 -143 -350 -189
-632 -6 -40 -15 -73 -20 -73 -4 0 -36 13 -71 29 -162 73 -314 78 -499 19 -338
-108 -574 -413 -597 -768 -14 -226 75 -663 198 -970 127 -317 350 -608 533
-694 108 -51 162 -61 336 -61 227 1 336 31 442 124 l47 41 213 -69 c117 -39
299 -95 403 -124 105 -30 219 -67 255 -82 104 -44 236 -67 359 -61 58 2 228 9
376 15 313 12 507 23 910 53 160 12 313 22 340 22 31 -1 87 -14 150 -37 199
-72 507 -106 656 -73 131 29 242 92 361 204 l57 54 113 -18 c146 -22 552 -30
787 -15 211 14 362 39 528 87 440 126 648 279 976 718 283 380 437 671 493
933 22 104 22 285 -1 383 -65 286 -299 524 -551 560 -178 26 -436 -20 -621
-110 -83 -40 -116 -64 -175 -123 -86 -85 -156 -184 -233 -329 -80 -152 -111
-246 -156 -473 -48 -242 -61 -288 -106 -379 -83 -167 -233 -331 -362 -395 -68
-35 -311 -76 -311 -53 0 5 20 79 44 163 148 516 141 703 -35 966 -99 147 -221
242 -371 289 l-57 17 -11 56 c-6 31 -26 118 -44 194 -30 124 -32 139 -17 144
62 21 405 160 444 179 26 14 52 22 57 19 25 -15 273 -405 398 -626 32 -57 72
-103 104 -120 26 -14 34 14 20 67 -18 66 -294 527 -402 671 l-39 51 98 56
c113 64 191 120 274 196 69 63 71 62 165 -25 76 -70 153 -171 238 -312 60
-101 120 -173 144 -173 21 0 10 81 -20 139 -83 165 -262 394 -369 472 l-33 25
98 131 c55 72 135 192 179 267 76 128 82 135 112 135 76 2 311 -68 617 -183
243 -91 270 -99 312 -87 l29 8 -37 35 c-20 20 -72 50 -115 68 -229 96 -621
225 -740 245 -24 4 -43 9 -43 11 0 3 11 26 24 52 33 66 90 221 120 327 29 107
111 471 135 604 l17 93 107 38 c361 127 511 257 789 685 219 335 346 603 378
795 62 370 -178 725 -570 844 -172 51 -354 83 -725 126 -194 23 -290 22 -447
-6 -48 -9 -91 -14 -96 -12 -5 1 -55 59 -112 128 -216 261 -476 497 -817 741
-553 395 -1006 591 -1618 704 -229 42 -318 48 -596 42 l-256 -6 -58 87 c-143
215 -324 444 -461 583 -217 219 -556 344 -775 285z m211 -110 c90 -16 185 -52
300 -115 142 -77 305 -255 562 -614 48 -67 88 -124 88 -127 0 -3 -19 -11 -42
-18 -48 -13 -108 -47 -108 -61 0 -5 24 -17 52 -27 49 -16 68 -16 247 -5 261
18 540 16 671 -4 354 -52 712 -154 995 -281 423 -191 1056 -640 1344 -953 106
-116 269 -310 345 -411 27 -36 68 -84 90 -108 42 -45 110 -87 125 -77 21 13
-27 141 -75 198 -13 16 -24 32 -24 36 0 11 160 31 246 31 89 0 523 -54 682
-85 278 -54 394 -106 522 -235 143 -143 195 -271 188 -460 -4 -84 -11 -123
-36 -197 -107 -313 -486 -910 -673 -1062 -82 -66 -206 -133 -330 -180 l-104
-40 -7 37 c-12 61 -31 112 -40 112 -23 0 -68 -130 -87 -250 -24 -147 -99 -497
-141 -657 -37 -137 -70 -232 -122 -344 l-39 -86 -197 -7 c-302 -10 -419 -23
-471 -49 -25 -12 -44 -26 -43 -32 0 -5 20 -16 44 -23 34 -11 75 -11 208 -2 91
6 217 10 282 8 l116 -3 -80 -125 c-67 -106 -161 -237 -235 -327 l-18 -23 -200
100 c-110 55 -218 103 -240 108 -50 10 -85 4 -85 -15 0 -30 54 -65 232 -151
100 -49 191 -96 201 -104 18 -13 16 -17 -38 -66 -72 -66 -115 -96 -239 -164
l-100 -56 -100 92 c-56 50 -136 120 -178 154 -109 88 -198 126 -198 84 0 -31
40 -75 165 -180 66 -56 142 -121 170 -146 l49 -44 -59 -27 c-96 -43 -383 -155
-398 -155 -7 0 -24 25 -36 55 -52 126 -213 336 -351 460 -216 193 -565 343
-873 375 -288 30 -694 -71 -927 -230 -209 -142 -469 -528 -531 -786 -27 -114
-23 -285 10 -379 44 -125 125 -239 240 -338 94 -80 180 -117 331 -141 35 -6
35 -6 33 -53 -43 -868 -93 -1256 -194 -1498 -59 -142 -144 -251 -225 -286
-119 -53 -373 -36 -513 34 -136 68 -230 268 -361 763 -143 544 -263 1140 -315
1564 -13 113 -32 230 -41 260 -19 64 -53 134 -61 126 -13 -13 -33 -127 -33
-191 0 -73 38 -395 65 -545 19 -109 19 -112 -7 -70 -129 207 -234 331 -354
416 l-55 39 7 55 c12 108 66 366 95 458 63 196 256 534 380 665 l75 80 34 -11
c44 -16 90 -15 90 1 -1 42 -55 98 -206 217 -306 238 -474 395 -600 562 -256
337 -428 677 -480 945 -16 84 -27 374 -14 387 3 3 50 -6 105 -20 93 -24 174
-28 192 -10 10 9 -28 46 -67 66 -19 9 -77 28 -128 41 l-94 24 7 50 c8 68 42
230 57 282 l13 41 113 -73 c110 -71 182 -99 203 -78 21 21 -49 89 -169 167
-67 43 -122 79 -122 80 0 8 83 246 110 314 l32 84 25 -24 c14 -13 79 -84 144
-159 133 -151 219 -215 219 -161 -1 39 -43 103 -144 217 -59 66 -127 144 -152
172 l-46 53 47 87 c102 189 298 484 551 829 161 219 172 238 180 298 7 47 7
48 -17 41 -43 -13 -98 -54 -131 -99 -18 -25 -36 -45 -39 -46 -13 0 -20 391 -9
550 24 372 201 1039 345 1295 63 112 131 169 224 185 65 11 68 11 151 -4z
m2009 -6372 c190 -28 450 -129 616 -240 98 -65 185 -144 259 -233 124 -150
185 -256 234 -411 25 -80 40 -141 86 -350 2 -13 -18 -18 -118 -28 -213 -20
-348 -67 -502 -173 -95 -66 -205 -174 -254 -251 -47 -72 -92 -194 -132 -358
-34 -140 -35 -240 -3 -315 l16 -40 16 29 c25 48 51 131 68 220 22 117 70 278
106 350 86 174 314 344 534 397 132 33 334 33 427 1 136 -47 234 -132 329
-286 113 -184 118 -334 24 -700 -66 -257 -183 -592 -267 -761 -125 -251 -305
-427 -493 -481 -48 -14 -85 -16 -205 -11 -187 7 -340 39 -491 102 -134 56
-241 87 -287 83 l-33 -3 31 -38 c18 -20 28 -37 23 -37 -5 0 -173 -11 -373 -25
-201 -13 -450 -27 -554 -31 l-190 -7 36 44 c86 106 165 307 212 539 38 186 79
632 104 1124 l7 140 94 32 c113 39 197 94 319 210 50 46 92 84 94 84 3 0 28
-29 56 -64 61 -74 127 -111 148 -81 19 25 0 80 -48 141 -77 98 -74 86 -32 141
49 63 97 173 76 173 -30 0 -150 -94 -273 -214 -167 -161 -235 -215 -319 -255
-191 -91 -405 -51 -563 103 -131 128 -178 229 -185 397 -5 133 15 214 92 367
103 205 248 397 372 491 182 138 492 233 778 240 32 0 106 -6 165 -15z m3801
-990 c170 -81 304 -260 346 -464 31 -156 7 -332 -72 -531 -99 -246 -408 -704
-642 -950 -167 -175 -327 -278 -552 -353 -266 -89 -414 -112 -790 -127 -260
-10 -365 -8 -525 12 -138 16 -131 9 -83 87 53 87 115 219 168 363 24 63 44
115 45 117 1 1 53 7 115 12 245 22 361 76 517 243 179 192 239 327 308 691 34
179 65 278 128 401 147 287 283 418 505 485 124 38 210 49 342 47 116 -2 130
-5 190 -33z m-7132 -165 c114 -28 277 -121 405 -232 102 -89 226 -273 376
-558 68 -130 73 -144 111 -318 113 -516 244 -970 326 -1132 19 -38 30 -69 24
-69 -40 0 -538 155 -556 173 -3 3 2 20 11 37 9 18 19 57 22 87 6 55 6 55 -17
43 -27 -15 -104 -91 -183 -183 -32 -37 -76 -76 -96 -87 -71 -36 -191 -53 -339
-48 -153 5 -214 21 -299 79 -156 106 -344 385 -448 664 -83 223 -154 556 -162
756 -7 172 9 251 80 392 43 87 64 115 141 192 73 72 108 99 176 133 147 73
308 100 428 71z"/>
<path d="M2877 8890 c-27 -31 -51 -121 -45 -168 3 -26 1 -27 -59 -34 -35 -4
-95 -16 -135 -27 -39 -11 -73 -20 -74 -18 -10 12 -33 68 -38 92 -4 17 -18 44
-31 60 -24 29 -25 29 -40 11 -21 -28 -18 -103 5 -155 11 -24 19 -45 18 -47 -2
-1 -31 -23 -65 -48 -66 -48 -83 -79 -64 -115 13 -23 51 -36 79 -28 9 3 58 23
107 45 147 64 205 75 405 76 199 1 243 -8 348 -71 83 -50 150 -109 227 -199
78 -93 125 -180 163 -309 54 -179 114 -307 135 -286 7 7 11 54 11 114 0 82 -5
120 -28 197 -35 120 -89 236 -154 331 -69 100 -84 117 -180 198 -143 119 -276
173 -459 188 -82 6 -83 6 -83 33 0 15 4 50 10 79 11 58 4 111 -15 111 -7 0
-25 -13 -38 -30z"/>
<path d="M4490 7695 c-21 -23 -25 -35 -24 -88 3 -104 50 -231 99 -263 79 -51
335 49 366 143 10 31 9 39 -8 62 -42 57 -257 158 -358 168 -45 5 -53 2 -75
-22z m153 -99 c76 -29 163 -72 172 -85 8 -14 -107 -70 -159 -77 l-44 -6 -20
53 c-26 70 -37 139 -23 139 6 0 39 -11 74 -24z"/>
<path d="M3864 7268 c3 -18 21 -47 38 -65 23 -24 28 -36 21 -45 -25 -30 -274
-542 -318 -652 -88 -221 -95 -351 -25 -492 36 -74 117 -162 176 -192 138 -70
367 -69 533 4 74 33 169 103 226 166 83 92 207 288 364 576 66 121 75 132 100
132 35 0 91 18 110 36 12 11 7 17 -32 42 -25 15 -72 34 -104 41 -118 25 -181
51 -213 87 -36 42 -90 146 -135 264 -45 116 -48 118 -176 81 -135 -39 -235
-56 -281 -47 -21 4 -76 27 -122 51 -61 33 -96 45 -127 45 -41 0 -41 0 -35 -32z
m366 -186 c0 -8 -114 -122 -122 -122 -4 0 -8 29 -8 64 l0 64 65 -1 c36 -1 65
-4 65 -5z m500 -323 c0 -8 -77 -59 -89 -59 -9 0 -7 39 5 97 l4 23 40 -28 c21
-15 39 -30 40 -33z m-714 -444 c167 -29 454 -144 454 -181 0 -23 -121 -137
-182 -172 -149 -85 -374 -95 -495 -21 -40 25 -98 103 -119 160 -15 42 -22 194
-10 206 8 8 117 20 197 22 37 0 106 -6 155 -14z"/>
<path d="M5945 7164 c-88 -13 -228 -50 -284 -75 -67 -30 -150 -87 -151 -103 0
-16 193 2 310 30 194 46 378 31 563 -46 164 -68 241 -149 348 -365 74 -150 94
-219 106 -373 5 -71 10 -90 29 -109 61 -61 113 -1 114 130 0 46 0 47 33 47 71
0 167 49 167 85 0 19 -53 28 -97 16 -21 -6 -54 -11 -74 -11 l-35 0 -18 73 c-9
39 -27 98 -40 129 l-24 58 43 24 c23 14 56 41 73 60 29 33 50 91 38 103 -9 9
-83 -27 -103 -49 -10 -11 -34 -29 -55 -39 l-36 -18 -43 65 c-55 85 -149 182
-222 228 -61 39 -200 96 -294 121 -57 15 -288 28 -348 19z"/>
</g>
</svg>
