<?xml version="1.0" standalone="no"?>
<!DOCTYPE svg PUBLIC "-//W3C//DTD SVG 20010904//EN"
 "http://www.w3.org/TR/2001/REC-SVG-20010904/DTD/svg10.dtd">
<svg version="1.0" xmlns="http://www.w3.org/2000/svg"
 width="180.000000pt" height="230.000000pt" viewBox="0 0 470.000000 566.000000"
 preserveAspectRatio="xMidYMid meet">

<g transform="translate(0.000000,566.000000) scale(0.100000,-0.100000)"
fill="#000000" stroke="none">
<path d="M3777 5610 c-74 -13 -251 -77 -357 -130 -174 -86 -357 -208 -513
-342 -39 -35 -80 -69 -89 -76 -14 -11 -35 -9 -130 13 -196 44 -480 59 -683 35
-167 -19 -410 -85 -562 -151 l-52 -23 -98 95 c-54 52 -125 117 -158 144 -33
28 -62 53 -65 57 -3 4 -68 54 -145 113 -77 58 -147 112 -156 119 -89 73 -215
146 -253 146 -79 0 -133 -121 -187 -415 -27 -148 -39 -586 -20 -732 26 -197
91 -406 174 -556 l35 -63 -28 -130 c-37 -173 -60 -317 -72 -444 -12 -130 -2
-387 17 -460 26 -95 26 -94 -72 -125 -98 -30 -214 -74 -197 -75 8 0 209 55
275 76 12 4 22 -11 43 -66 14 -39 26 -77 26 -83 0 -7 -15 -20 -33 -28 -139
-65 -362 -199 -332 -199 10 0 181 87 289 147 43 23 82 43 86 43 8 0 70 -107
70 -119 -1 -3 -17 -18 -38 -32 -99 -69 -267 -192 -300 -220 l-37 -31 35 18
c30 17 137 87 270 178 25 17 55 39 66 49 21 18 22 18 67 -45 53 -75 177 -202
250 -257 68 -52 265 -161 345 -192 34 -13 62 -26 62 -29 0 -3 -18 -52 -40
-110 -48 -124 -121 -348 -175 -535 -80 -275 -191 -757 -179 -776 2 -4 16 -10
31 -14 15 -3 33 -11 40 -17 7 -5 27 -18 45 -27 18 -10 76 -40 128 -68 52 -28
106 -54 119 -58 23 -7 24 -7 17 46 -25 200 -33 389 -17 389 10 0 53 -85 76
-150 25 -71 62 -117 118 -145 59 -29 93 -31 144 -10 29 12 43 13 71 4 53 -18
125 -6 168 26 37 29 73 93 74 133 0 15 6 22 20 22 11 0 38 19 60 41 36 37 40
47 40 91 0 83 -61 177 -143 220 -61 31 -59 11 3 -32 73 -51 109 -109 110 -178
0 -34 -6 -49 -33 -78 -30 -33 -39 -36 -97 -41 -81 -5 -115 13 -166 93 -41 64
-57 66 -24 2 41 -80 101 -128 160 -128 40 0 47 -21 22 -62 -35 -56 -67 -80
-116 -85 -88 -10 -167 51 -229 178 -15 31 -27 61 -27 67 0 6 -5 14 -11 18 -37
23 38 -167 86 -219 14 -15 23 -32 20 -37 -3 -6 -28 -10 -55 -10 -137 0 -228
185 -302 618 -20 119 -31 305 -17 296 4 -2 9 15 12 39 3 23 13 74 22 112 10
39 18 82 20 97 4 34 35 118 51 138 10 12 74 138 74 146 0 1 -55 30 -122 64
-314 160 -453 264 -586 441 -23 31 -42 60 -42 65 0 6 30 32 68 59 96 70 162
127 174 149 10 19 10 19 -20 0 -17 -10 -74 -52 -126 -92 -52 -39 -101 -74
-108 -77 -9 -4 -25 14 -45 49 l-31 54 126 73 c126 72 207 127 198 136 -6 6
-80 -32 -215 -111 -62 -37 -116 -65 -118 -62 -7 7 -54 138 -51 141 5 5 222 75
233 75 5 1 35 12 65 26 l55 25 -45 -7 c-25 -3 -100 -24 -168 -45 -68 -22 -129
-39 -137 -39 -8 0 -17 15 -21 38 -3 20 -10 55 -15 77 -4 22 -5 43 -1 46 4 3
29 12 56 19 102 28 233 92 365 178 47 31 88 58 91 59 3 2 11 -11 18 -27 42
-95 233 -78 304 26 19 28 29 34 59 34 109 0 255 59 344 138 97 87 171 211 195
328 16 76 16 218 0 285 -16 65 -56 134 -87 148 -13 6 -33 7 -50 2 -43 -14
-223 -44 -228 -39 -10 10 270 379 439 578 45 53 88 106 97 120 l16 24 44 -36
c24 -19 98 -72 164 -118 66 -45 172 -124 235 -176 118 -95 438 -409 428 -419
-3 -3 -27 -1 -54 4 -27 5 -109 15 -183 21 l-134 12 -23 -29 c-39 -46 -63 -105
-81 -192 -15 -76 -15 -88 1 -169 51 -265 245 -440 524 -473 166 -20 317 10
440 88 58 37 74 40 91 19 19 -22 139 -101 216 -141 108 -56 243 -106 328 -121
l39 -7 -7 -51 c-16 -142 -27 -213 -34 -224 -5 -8 -23 -7 -71 3 -107 23 -291
53 -355 59 l-60 5 50 -15 c28 -7 131 -30 230 -50 99 -20 183 -40 187 -43 4 -4
2 -23 -4 -44 -13 -41 -19 -43 -95 -28 -26 6 -95 17 -153 26 -58 9 -116 19
-130 21 l-25 5 25 -14 c23 -13 131 -40 275 -68 33 -6 63 -13 67 -15 11 -7 -51
-124 -65 -124 -7 1 -50 14 -97 31 -82 29 -184 58 -205 58 -25 0 150 -77 248
-108 20 -7 37 -17 37 -23 0 -5 -24 -44 -52 -86 -62 -90 -228 -262 -313 -324
-98 -72 -271 -170 -363 -207 l-44 -17 31 -30 c21 -20 37 -51 52 -102 12 -40
26 -75 31 -78 4 -3 8 -16 8 -29 0 -13 8 -29 18 -34 9 -6 12 -11 5 -11 -8 0
-11 -35 -12 -117 0 -145 -16 -231 -90 -468 -11 -33 -29 -94 -41 -135 -12 -41
-35 -119 -52 -172 -51 -162 -152 -286 -269 -328 -66 -24 -95 -25 -145 -3 l-39
16 30 7 c57 14 82 29 114 67 39 47 23 56 -24 14 -19 -17 -60 -38 -90 -46 -51
-15 -59 -15 -104 0 -70 23 -121 88 -121 155 0 28 2 30 21 19 12 -6 52 -11 90
-11 59 -1 74 3 109 27 22 15 39 29 37 31 -2 2 -27 -3 -57 -11 -98 -26 -170
-15 -222 33 -39 35 -52 74 -43 128 6 42 17 58 119 163 61 64 128 139 148 166
39 55 82 135 75 141 -2 2 -43 -46 -90 -108 -47 -62 -122 -147 -166 -189 -135
-128 -157 -230 -69 -326 12 -12 22 -39 23 -62 2 -22 8 -56 15 -75 16 -49 80
-104 130 -112 22 -4 56 -19 75 -34 96 -76 260 -28 371 108 67 82 107 173 150
342 21 80 46 162 58 185 8 16 12 6 23 -60 17 -112 28 -507 16 -573 -6 -29 -7
-54 -3 -57 13 -8 236 77 330 126 l40 21 -5 52 c-23 200 -91 577 -143 791 -41
167 -133 439 -184 538 -11 22 -18 40 -16 41 2 2 37 20 78 40 136 68 314 198
413 301 44 45 128 156 172 227 17 27 33 48 38 48 10 0 185 -69 219 -86 14 -7
50 -23 80 -34 l53 -20 -35 31 c-38 33 -136 83 -237 119 -35 13 -63 26 -63 30
0 4 14 35 32 69 30 59 34 62 63 58 56 -9 190 -37 240 -51 72 -21 187 -39 210
-34 42 8 -74 40 -362 100 -62 12 -103 26 -103 33 0 7 5 27 11 44 11 32 12 32
63 26 28 -3 74 -12 101 -20 74 -21 236 -45 291 -44 l49 1 -45 13 c-69 20 -382
85 -407 85 -28 0 -28 -1 -4 108 23 104 36 373 23 482 -37 298 -100 552 -193
777 -45 107 -46 115 -20 157 54 86 122 357 141 559 33 343 -18 646 -127 750
-48 45 -107 55 -216 37z m173 -74 c0 -3 -4 -8 -10 -11 -5 -3 -10 -1 -10 4 0 6
5 11 10 11 6 0 10 -2 10 -4z m-300 -26 c-8 -5 -19 -10 -25 -10 -5 0 -3 5 5 10
8 5 20 10 25 10 6 0 3 -5 -5 -10z m-3050 -10 c0 -5 -2 -10 -4 -10 -3 0 -8 5
-11 10 -3 6 -1 10 4 10 6 0 11 -4 11 -10z m-10 -45 c14 -19 14 -19 -2 -6 -10
7 -18 18 -18 24 0 6 1 8 3 6 1 -2 9 -13 17 -24z m3378 -7 c5 -7 13 -37 17 -65
l7 -53 -34 0 c-18 0 -75 -11 -126 -25 -51 -14 -96 -25 -99 -25 -15 0 108 127
146 152 49 31 73 35 89 16z m-3522 -44 c-8 -21 -15 -34 -15 -28 -1 15 20 76
25 71 2 -2 -2 -21 -10 -43z m92 19 c29 -44 63 -115 57 -121 -3 -3 -29 7 -58
21 -29 15 -58 27 -65 27 -6 0 -12 2 -12 5 0 12 45 95 51 95 4 0 16 -12 27 -27z
m3496 -56 c4 -19 3 -26 -4 -22 -5 3 -10 18 -10 32 0 32 5 28 14 -10z m-284 13
c0 -5 -5 -10 -11 -10 -5 0 -7 5 -4 10 3 6 8 10 11 10 2 0 4 -4 4 -10z m-3195
-89 c76 -42 69 -33 141 -201 13 -30 31 -68 39 -84 9 -16 14 -30 13 -32 -2 -1
-35 18 -73 43 -76 49 -221 123 -242 123 -7 0 -13 2 -13 4 0 7 31 161 35 174 7
19 25 14 100 -27z m316 12 c13 -17 13 -17 -6 -3 -11 8 -22 16 -24 17 -2 2 0 3
6 3 6 0 17 -8 24 -17z m3129 -85 l0 -93 -73 -1 c-123 -3 -211 -28 -360 -102
-10 -5 84 148 118 194 20 25 40 36 122 59 54 15 103 29 108 30 6 2 27 4 48 4
l37 1 0 -92z m-3300 62 c0 -5 -2 -10 -4 -10 -3 0 -8 5 -11 10 -3 6 -1 10 4 10
6 0 11 -4 11 -10z m2580 -10 c0 -5 -5 -10 -11 -10 -5 0 -7 5 -4 10 3 6 8 10
11 10 2 0 4 -4 4 -10z m-2883 -77 c-3 -10 -5 -4 -5 12 0 17 2 24 5 18 2 -7 2
-21 0 -30z m2668 -23 c3 -5 2 -10 -4 -10 -5 0 -13 5 -16 10 -3 6 -2 10 4 10 5
0 13 -4 16 -10z m492 -57 c1 -22 -1 -24 -8 -10 -6 9 -7 22 -4 27 9 14 10 13
12 -17z m-3170 -30 c-3 -10 -5 -2 -5 17 0 19 2 27 5 18 2 -10 2 -26 0 -35z
m138 -5 c85 -43 223 -136 240 -161 7 -12 25 -52 39 -89 29 -78 29 -78 -65 -48
-92 28 -243 60 -283 60 l-35 0 -3 58 c-2 31 -2 94 0 140 4 96 0 94 107 40z
m3483 -86 l3 -104 -38 6 c-101 17 -328 -21 -458 -77 -52 -22 -88 -47 -68 -47
6 0 13 4 15 8 3 9 143 54 221 72 66 14 276 31 305 23 l24 -6 -7 -110 c-8 -132
-11 -141 -39 -132 -149 43 -178 48 -299 50 l-127 2 -55 39 c-30 21 -54 47 -55
56 0 21 75 165 102 195 29 32 133 84 218 109 57 18 96 23 165 21 l90 -2 3
-103z m-475 52 c-7 -19 -10 -18 -16 5 -3 13 -1 18 9 14 7 -2 10 -11 7 -19z
m-1273 6 c0 -5 -5 -10 -11 -10 -5 0 -7 5 -4 10 3 6 8 10 11 10 2 0 4 -4 4 -10z
m120 -25 c-7 -8 -16 -15 -21 -15 -5 0 -1 8 9 18 20 22 31 19 12 -3z m-443 9
c-3 -3 -12 -4 -19 -1 -8 3 -5 6 6 6 11 1 17 -2 13 -5z m-1560 -26 c-3 -8 -6
-5 -6 6 -1 11 2 17 5 13 3 -3 4 -12 1 -19z m1508 11 c11 -17 -1 -21 -15 -4 -8
9 -8 15 -2 15 6 0 14 -5 17 -11z m648 -4 c-3 -9 -8 -14 -10 -11 -3 3 -2 9 2
15 9 16 15 13 8 -4z m84 9 c-3 -3 -12 -4 -19 -1 -8 3 -5 6 6 6 11 1 17 -2 13
-5z m-687 -34 c0 -5 -2 -10 -4 -10 -3 0 -8 5 -11 10 -3 6 -1 10 4 10 6 0 11
-4 11 -10z m243 3 c-7 -2 -19 -2 -25 0 -7 3 -2 5 12 5 14 0 19 -2 13 -5z m604
-9 c-3 -3 -12 -4 -19 -1 -8 3 -5 6 6 6 11 1 17 -2 13 -5z m1281 -59 c0 -16 -2
-15 -8 5 -11 34 -11 60 0 35 5 -11 8 -29 8 -40z m-3681 8 c-3 -10 -5 -4 -5 12
0 17 2 24 5 18 2 -7 2 -21 0 -30z m1403 -15 c0 -6 -6 -5 -15 2 -8 7 -15 14
-15 16 0 2 7 1 15 -2 8 -4 15 -11 15 -16z m50 -24 c0 -2 -7 -4 -15 -4 -8 0
-15 4 -15 10 0 5 7 7 15 4 8 -4 15 -8 15 -10z m-990 -4 c0 -5 -2 -10 -4 -10
-3 0 -8 5 -11 10 -3 6 -1 10 4 10 6 0 11 -4 11 -10z m3214 -94 c-4 -37 -9 -64
-12 -62 -2 3 -1 35 3 71 4 37 9 65 11 62 3 -2 2 -34 -2 -71z m-976 29 c-3 -3
-9 2 -12 12 -6 14 -5 15 5 6 7 -7 10 -15 7 -18z m-2385 -55 c101 -28 147 -47
153 -65 3 -7 11 -41 18 -75 13 -60 12 -61 -15 -99 l-28 -38 -128 -6 c-71 -4
-148 -11 -172 -17 -24 -6 -48 -7 -52 -3 -10 12 -53 327 -47 345 5 13 18 13
100 -2 51 -10 128 -27 171 -40z m-306 -7 c-3 -10 -5 -4 -5 12 0 17 2 24 5 18
2 -7 2 -21 0 -30z m1730 31 c-3 -3 -12 -4 -19 -1 -8 3 -5 6 6 6 11 1 17 -2 13
-5z m70 0 c-3 -3 -12 -4 -19 -1 -8 3 -5 6 6 6 11 1 17 -2 13 -5z m-32 -24 c3
-5 1 -10 -4 -10 -6 0 -11 5 -11 10 0 6 2 10 4 10 3 0 8 -4 11 -10z m-1788 -57
c-3 -10 -5 -4 -5 12 0 17 2 24 5 18 2 -7 2 -21 0 -30z m1276 2 c-3 -9 -8 -14
-10 -11 -3 3 -2 9 2 15 9 16 15 13 8 -4z m1767 -16 c32 -28 33 -29 5 -12 -35
21 -60 43 -48 43 4 0 24 -14 43 -31z m-60 1 c0 -5 -5 -10 -11 -10 -5 0 -7 5
-4 10 3 6 8 10 11 10 2 0 4 -4 4 -10z m-1369 -29 c-12 -12 -21 -18 -21 -14 0
10 33 44 37 39 3 -2 -5 -14 -16 -25z m2056 -3 c-3 -8 -6 -5 -6 6 -1 11 2 17 5
13 3 -3 4 -12 1 -19z m-3640 -45 c-3 -10 -5 -2 -5 17 0 19 2 27 5 18 2 -10 2
-26 0 -35z m2554 24 c-10 -9 -11 -8 -5 6 3 10 9 15 12 12 3 -3 0 -11 -7 -18z
m953 -26 c38 -11 71 -23 73 -25 12 -11 -64 -286 -78 -286 -4 0 -39 39 -77 88
-39 48 -109 125 -157 171 l-88 84 129 -6 c83 -4 154 -13 198 -26z m-2464 -27
c0 -3 -7 -1 -15 6 -8 7 -15 17 -15 22 0 5 7 3 15 -6 8 -8 15 -18 15 -22z m930
26 c0 -5 -2 -10 -4 -10 -3 0 -8 5 -11 10 -3 6 -1 10 4 10 6 0 11 -4 11 -10z
m1165 -10 c3 -5 2 -10 -4 -10 -5 0 -13 5 -16 10 -3 6 -2 10 4 10 5 0 13 -4 16
-10z m492 -12 c-3 -8 -6 -5 -6 6 -1 11 2 17 5 13 3 -3 4 -12 1 -19z m-3027
-18 c0 -5 -2 -10 -4 -10 -3 0 -8 5 -11 10 -3 6 -1 10 4 10 6 0 11 -4 11 -10z
m900 6 c0 -3 -4 -8 -10 -11 -5 -3 -10 -1 -10 4 0 6 5 11 10 11 6 0 10 -2 10
-4z m660 -36 c0 -5 -2 -10 -4 -10 -3 0 -8 5 -11 10 -3 6 -1 10 4 10 6 0 11 -4
11 -10z m1010 6 c0 -2 -8 -10 -17 -17 -16 -13 -17 -12 -4 4 13 16 21 21 21 13z
m-2675 -46 c3 -5 1 -10 -4 -10 -6 0 -11 5 -11 10 0 6 2 10 4 10 3 0 8 -4 11
-10z m1675 0 c0 -5 -2 -10 -4 -10 -3 0 -8 5 -11 10 -3 6 -1 10 4 10 6 0 11 -4
11 -10z m-2140 -40 c0 -5 -2 -10 -4 -10 -3 0 -8 5 -11 10 -3 6 -1 10 4 10 6 0
11 -4 11 -10z m360 -16 c0 -3 -15 -31 -33 -62 -18 -31 -43 -77 -54 -102 -58
-123 -91 -197 -98 -219 -10 -34 -27 -12 -60 79 -27 76 -76 282 -69 289 13 13
314 28 314 15z m2650 -8 c0 -2 -8 -10 -17 -17 -16 -13 -17 -12 -4 4 13 16 21
21 21 13z m-3053 -53 c-3 -10 -5 -4 -5 12 0 17 2 24 5 18 2 -7 2 -21 0 -30z
m768 7 c3 -6 -1 -7 -9 -4 -18 7 -21 14 -7 14 6 0 13 -4 16 -10z m2225 -4 c0
-2 -7 -7 -16 -10 -8 -3 -12 -2 -9 4 6 10 25 14 25 6z m400 -66 c0 -5 -5 -10
-11 -10 -5 0 -7 5 -4 10 3 6 8 10 11 10 2 0 4 -4 4 -10z m-3303 -92 c-3 -8 -6
-5 -6 6 -1 11 2 17 5 13 3 -3 4 -12 1 -19z m3371 -3 c-3 -3 -9 2 -12 12 -6 14
-5 15 5 6 7 -7 10 -15 7 -18z m-2963 -5 c3 -6 -1 -7 -9 -4 -18 7 -21 14 -7 14
6 0 13 -4 16 -10z m2280 -58 c-6 -7 -35 18 -35 31 0 5 9 2 20 -8 11 -10 18
-20 15 -23z m342 32 c-3 -3 -12 -4 -19 -1 -8 3 -5 6 6 6 11 1 17 -2 13 -5z
m-1917 -14 c0 -5 -5 -10 -11 -10 -5 0 -7 5 -4 10 3 6 8 10 11 10 2 0 4 -4 4
-10z m1620 -14 c0 -3 -4 -8 -10 -11 -5 -3 -10 -1 -10 4 0 6 5 11 10 11 6 0 10
-2 10 -4z m-2713 -28 c-3 -8 -6 -5 -6 6 -1 11 2 17 5 13 3 -3 4 -12 1 -19z
m966 -25 c-7 -2 -19 -2 -25 0 -7 3 -2 5 12 5 14 0 19 -2 13 -5z m-976 -75 c-3
-8 -6 -5 -6 6 -1 11 2 17 5 13 3 -3 4 -12 1 -19z m1351 -30 c70 -114 66 -325
-9 -483 -27 -59 -97 -149 -143 -185 -117 -92 -314 -158 -353 -119 -9 9 -17 3
-33 -24 -34 -57 -103 -97 -167 -97 -40 0 -58 5 -73 20 -28 28 -25 48 15 86 19
18 35 37 35 42 0 5 -19 12 -42 15 -85 11 -174 103 -217 223 -18 52 -24 87 -24
158 1 108 16 153 61 172 37 15 42 11 42 -40 1 -150 84 -285 215 -347 52 -25
71 -29 150 -29 151 0 242 35 335 129 30 31 71 85 90 121 34 64 35 68 35 181 0
70 -4 121 -11 130 -6 8 -14 26 -18 41 -7 29 2 35 61 37 25 1 35 -5 51 -31z
m-615 15 c-7 -2 -19 -2 -25 0 -7 3 -2 5 12 5 14 0 19 -2 13 -5z m1474 -8 c9
-3 7 -22 -8 -72 -37 -132 -13 -297 61 -411 61 -95 176 -158 321 -176 111 -14
264 51 340 143 72 87 115 225 107 346 l-4 66 46 -6 c105 -14 110 -21 110 -140
0 -99 -15 -165 -58 -255 -91 -186 -262 -283 -502 -283 -290 0 -498 146 -571
401 -34 119 -16 273 43 369 18 31 22 33 61 27 23 -3 47 -7 54 -9z m-2177 -15
c0 -5 -2 -10 -4 -10 -3 0 -8 5 -11 10 -3 6 -1 10 4 10 6 0 11 -4 11 -10z m335
-10 c3 -5 1 -10 -4 -10 -6 0 -11 5 -11 10 0 6 2 10 4 10 3 0 8 -4 11 -10z
m2745 -4 c0 -2 -7 -7 -16 -10 -8 -3 -12 -2 -9 4 6 10 25 14 25 6z m210 -16
c-8 -5 -19 -10 -25 -10 -5 0 -3 5 5 10 8 5 20 10 25 10 6 0 3 -5 -5 -10z
m-257 -7 c-7 -2 -19 -2 -25 0 -7 3 -2 5 12 5 14 0 19 -2 13 -5z m377 -57 c0
-3 -4 -8 -10 -11 -5 -3 -10 -1 -10 4 0 6 5 11 10 11 6 0 10 -2 10 -4z m-3205
-66 c-3 -5 -12 -10 -18 -10 -7 0 -6 4 3 10 19 12 23 12 15 0z m50 0 c3 -5 1
-10 -4 -10 -6 0 -11 5 -11 10 0 6 2 10 4 10 3 0 8 -4 11 -10z m3075 -14 c0 -2
-7 -9 -15 -16 -13 -11 -14 -10 -9 4 5 14 24 23 24 12z m-3270 -90 c0 -3 -4 -8
-10 -11 -5 -3 -10 -1 -10 4 0 6 5 11 10 11 6 0 10 -2 10 -4z m-33 -98 c-3 -7
-5 -2 -5 12 0 14 2 19 5 13 2 -7 2 -19 0 -25z m-20 -110 c-3 -8 -6 -5 -6 6 -1
11 2 17 5 13 3 -3 4 -12 1 -19z m3490 -144 c-3 -3 -12 -4 -19 -1 -8 3 -5 6 6
6 11 1 17 -2 13 -5z m-3244 -61 c-7 -2 -19 -2 -25 0 -7 3 -2 5 12 5 14 0 19
-2 13 -5z m3354 -15 c-3 -8 -6 -5 -6 6 -1 11 2 17 5 13 3 -3 4 -12 1 -19z
m-3550 -14 c-3 -3 -12 -4 -19 -1 -8 3 -5 6 6 6 11 1 17 -2 13 -5z m323 2 c0
-3 -4 -8 -10 -11 -5 -3 -10 -1 -10 4 0 6 5 11 10 11 6 0 10 -2 10 -4z m20 -26
c0 -5 -5 -10 -11 -10 -5 0 -7 5 -4 10 3 6 8 10 11 10 2 0 4 -4 4 -10z m2746
-5 c16 -8 22 -15 13 -15 -8 0 -24 7 -35 15 -25 19 -14 19 22 0z m-2813 -30
c-3 -9 -8 -14 -10 -11 -3 3 -2 9 2 15 9 16 15 13 8 -4z m-23 -29 c0 -2 -7 -6
-15 -10 -8 -3 -15 -1 -15 4 0 6 7 10 15 10 8 0 15 -2 15 -4z m144 -25 c3 -5
-3 -11 -15 -14 -16 -4 -18 -3 -8 9 13 16 16 17 23 5z m-497 -133 c-3 -8 -6 -5
-6 6 -1 11 2 17 5 13 3 -3 4 -12 1 -19z m308 12 c-3 -5 -11 -10 -16 -10 -6 0
-7 5 -4 10 3 6 11 10 16 10 6 0 7 -4 4 -10z m582 -1276 c-3 -3 -12 -4 -19 -1
-8 3 -5 6 6 6 11 1 17 -2 13 -5z m1920 -34 c3 -10 2 -11 -4 -4 -4 6 -15 14
-23 17 -11 5 -9 6 4 4 11 -1 21 -9 23 -17z m20 -66 c-3 -3 -12 -4 -19 -1 -8 3
-5 6 6 6 11 1 17 -2 13 -5z m60 -290 c-3 -3 -12 -4 -19 -1 -8 3 -5 6 6 6 11 1
17 -2 13 -5z m-30 -56 c-3 -8 -6 -5 -6 6 -1 11 2 17 5 13 3 -3 4 -12 1 -19z
m100 -70 c2 -18 0 -20 -7 -8 -12 18 -13 30 -2 30 4 0 9 -10 9 -22z m-100 -65
c-3 -10 -5 -4 -5 12 0 17 2 24 5 18 2 -7 2 -21 0 -30z m-2187 -148 c0 -5 -5
-3 -10 5 -5 8 -10 20 -10 25 0 6 5 3 10 -5 5 -8 10 -19 10 -25z m-63 -107 c-3
-8 -6 -5 -6 6 -1 11 2 17 5 13 3 -3 4 -12 1 -19z m-27 -162 c0 -2 -7 -7 -16
-10 -8 -3 -12 -2 -9 4 6 10 25 14 25 6z m2500 -26 c0 -5 -5 -10 -11 -10 -5 0
-7 5 -4 10 3 6 8 10 11 10 2 0 4 -4 4 -10z m-2366 -31 c-3 -6 0 -16 7 -21 10
-7 7 -7 -8 -3 -17 5 -23 2 -23 -10 0 -9 -5 -13 -11 -10 -7 5 -2 16 12 31 24
25 35 31 23 13z m-49 -67 c-3 -3 -11 0 -18 7 -9 10 -8 11 6 5 10 -3 15 -9 12
-12z m2235 -36 c0 -3 -4 -8 -10 -11 -5 -3 -10 -1 -10 4 0 6 5 11 10 11 6 0 10
-2 10 -4z m-2140 -41 c-7 -8 -20 -15 -29 -15 -11 1 -8 5 9 15 32 18 35 18 20
0z m2157 -81 c-3 -3 -12 -4 -19 -1 -8 3 -5 6 6 6 11 1 17 -2 13 -5z m-2427
-94 c0 -5 -5 -10 -11 -10 -5 0 -7 5 -4 10 3 6 8 10 11 10 2 0 4 -4 4 -10z
m2647 -16 c-7 -7 -37 7 -37 17 0 6 9 5 21 -1 11 -7 19 -14 16 -16z m-77 -18
c0 -3 -4 -8 -10 -11 -5 -3 -10 -1 -10 4 0 6 5 11 10 11 6 0 10 -2 10 -4z"/>
<path d="M2316 3204 c-74 -64 -149 -66 -223 -5 -57 47 -55 15 1 -36 44 -40 52
-43 103 -43 30 0 64 5 76 11 46 25 97 71 97 90 0 26 -9 24 -54 -17z"/>
<path d="M2168 2943 c-66 -71 -167 -266 -219 -426 -18 -55 -26 -94 -20 -100
12 -12 14 -7 54 104 54 148 196 429 216 429 17 0 196 -336 266 -501 19 -44 41
-90 50 -101 38 -56 18 64 -24 139 -6 10 -40 78 -76 152 -36 74 -75 145 -85
159 -11 14 -20 30 -21 36 -1 20 -84 131 -100 134 -8 1 -26 -10 -41 -25z"/>
<path d="M1716 1362 c-12 -20 5 -152 30 -230 13 -40 38 -98 54 -130 35 -65 34
-48 -4 53 -15 39 -35 122 -46 185 -25 138 -24 137 -34 122z"/>
</g>
</svg>
